<svg width="110" height="34" viewBox="0 0 110 34" fill="none" xmlns="http://www.w3.org/2000/svg">
<path d="M14.2 3.68H19.36L31.68 32H24.64L22.2 26H11.2L8.84 32H1.96L14.2 3.68ZM16.6 11.92L13.16 20.72H20.08L16.6 11.92ZM33.8484 1.76H39.8484V32H33.8484V1.76ZM44.2391 12.56H50.2391V32H44.2391V12.56ZM43.7591 6.44C43.7591 5.48 44.0924 4.66667 44.7591 4C45.4524 3.30667 46.2791 2.96 47.2391 2.96C48.1991 2.96 49.0124 3.30667 49.6791 4C50.3724 4.66667 50.7191 5.48 50.7191 6.44C50.7191 7.4 50.3724 8.22667 49.6791 8.92C49.0124 9.58667 48.1991 9.92 47.2391 9.92C46.2791 9.92 45.4524 9.58667 44.7591 8.92C44.0924 8.22667 43.7591 7.4 43.7591 6.44ZM52.5097 12.56H58.9897L63.9097 25.76H63.9897L68.5497 12.56H74.5897L66.9097 32H60.5497L52.5097 12.56ZM76.8563 12.56H82.8563V32H76.8563V12.56ZM76.3763 6.44C76.3763 5.48 76.7096 4.66667 77.3763 4C78.0696 3.30667 78.8963 2.96 79.8563 2.96C80.8163 2.96 81.6296 3.30667 82.2963 4C82.9896 4.66667 83.3363 5.48 83.3363 6.44C83.3363 7.4 82.9896 8.22667 82.2963 8.92C81.6296 9.58667 80.8163 9.92 79.8563 9.92C78.8963 9.92 78.0696 9.58667 77.3763 8.92C76.7096 8.22667 76.3763 7.4 76.3763 6.44ZM86.4469 22.28C86.4469 20.7333 86.7269 19.3333 87.2869 18.08C87.8469 16.8267 88.6069 15.76 89.5669 14.88C90.5535 13.9733 91.7002 13.28 93.0069 12.8C94.3402 12.32 95.7535 12.08 97.2469 12.08C98.7402 12.08 100.14 12.32 101.447 12.8C102.78 13.28 103.927 13.9733 104.887 14.88C105.874 15.76 106.647 16.8267 107.207 18.08C107.767 19.3333 108.047 20.7333 108.047 22.28C108.047 23.8267 107.767 25.2267 107.207 26.48C106.647 27.7333 105.874 28.8133 104.887 29.72C103.927 30.6 102.78 31.28 101.447 31.76C100.14 32.24 98.7402 32.48 97.2469 32.48C95.7535 32.48 94.3402 32.24 93.0069 31.76C91.7002 31.28 90.5535 30.6 89.5669 29.72C88.6069 28.8133 87.8469 27.7333 87.2869 26.48C86.7269 25.2267 86.4469 23.8267 86.4469 22.28ZM92.4469 22.28C92.4469 23.7467 92.8602 24.9333 93.6869 25.84C94.5402 26.7467 95.7269 27.2 97.2469 27.2C98.7669 27.2 99.9402 26.7467 100.767 25.84C101.62 24.9333 102.047 23.7467 102.047 22.28C102.047 20.8133 101.62 19.6267 100.767 18.72C99.9402 17.8133 98.7669 17.36 97.2469 17.36C95.7269 17.36 94.5402 17.8133 93.6869 18.72C92.8602 19.6267 92.4469 20.8133 92.4469 22.28Z" fill="white"/>
<path d="M14.2 3.68H19.36L31.68 32H24.64L22.2 26H11.2L8.84 32H1.96L14.2 3.68ZM16.6 11.92L13.16 20.72H20.08L16.6 11.92ZM33.8484 1.76H39.8484V32H33.8484V1.76ZM44.2391 12.56H50.2391V32H44.2391V12.56ZM43.7591 6.44C43.7591 5.48 44.0924 4.66667 44.7591 4C45.4524 3.30667 46.2791 2.96 47.2391 2.96C48.1991 2.96 49.0124 3.30667 49.6791 4C50.3724 4.66667 50.7191 5.48 50.7191 6.44C50.7191 7.4 50.3724 8.22667 49.6791 8.92C49.0124 9.58667 48.1991 9.92 47.2391 9.92C46.2791 9.92 45.4524 9.58667 44.7591 8.92C44.0924 8.22667 43.7591 7.4 43.7591 6.44ZM52.5097 12.56H58.9897L63.9097 25.76H63.9897L68.5497 12.56H74.5897L66.9097 32H60.5497L52.5097 12.56ZM76.8563 12.56H82.8563V32H76.8563V12.56ZM76.3763 6.44C76.3763 5.48 76.7096 4.66667 77.3763 4C78.0696 3.30667 78.8963 2.96 79.8563 2.96C80.8163 2.96 81.6296 3.30667 82.2963 4C82.9896 4.66667 83.3363 5.48 83.3363 6.44C83.3363 7.4 82.9896 8.22667 82.2963 8.92C81.6296 9.58667 80.8163 9.92 79.8563 9.92C78.8963 9.92 78.0696 9.58667 77.3763 8.92C76.7096 8.22667 76.3763 7.4 76.3763 6.44ZM86.4469 22.28C86.4469 20.7333 86.7269 19.3333 87.2869 18.08C87.8469 16.8267 88.6069 15.76 89.5669 14.88C90.5535 13.9733 91.7002 13.28 93.0069 12.8C94.3402 12.32 95.7535 12.08 97.2469 12.08C98.7402 12.08 100.14 12.32 101.447 12.8C102.78 13.28 103.927 13.9733 104.887 14.88C105.874 15.76 106.647 16.8267 107.207 18.08C107.767 19.3333 108.047 20.7333 108.047 22.28C108.047 23.8267 107.767 25.2267 107.207 26.48C106.647 27.7333 105.874 28.8133 104.887 29.72C103.927 30.6 102.78 31.28 101.447 31.76C100.14 32.24 98.7402 32.48 97.2469 32.48C95.7535 32.48 94.3402 32.24 93.0069 31.76C91.7002 31.28 90.5535 30.6 89.5669 29.72C88.6069 28.8133 87.8469 27.7333 87.2869 26.48C86.7269 25.2267 86.4469 23.8267 86.4469 22.28ZM92.4469 22.28C92.4469 23.7467 92.8602 24.9333 93.6869 25.84C94.5402 26.7467 95.7269 27.2 97.2469 27.2C98.7669 27.2 99.9402 26.7467 100.767 25.84C101.62 24.9333 102.047 23.7467 102.047 22.28C102.047 20.8133 101.62 19.6267 100.767 18.72C99.9402 17.8133 98.7669 17.36 97.2469 17.36C95.7269 17.36 94.5402 17.8133 93.6869 18.72C92.8602 19.6267 92.4469 20.8133 92.4469 22.28Z" fill="url(#paint0_linear)"/>
<path d="M14.2 3.68V2.68H13.5428L13.2821 3.28327L14.2 3.68ZM19.36 3.68L20.277 3.28108L20.0155 2.68H19.36V3.68ZM31.68 32V33H33.2056L32.597 31.6011L31.68 32ZM24.64 32L23.7137 32.3767L23.9671 33H24.64V32ZM22.2 26L23.1263 25.6233L22.8729 25H22.2V26ZM11.2 26V25H10.5188L10.2694 25.634L11.2 26ZM8.84 32V33H9.52124L9.7706 32.366L8.84 32ZM1.96 32L1.04207 31.6033L0.438393 33H1.96V32ZM16.6 11.92L17.5299 11.5523L16.5946 9.18711L15.6686 11.5559L16.6 11.92ZM13.16 20.72L12.2286 20.3559L11.6954 21.72H13.16V20.72ZM20.08 20.72V21.72H21.5508L21.0099 20.3523L20.08 20.72ZM14.2 4.68H19.36V2.68H14.2V4.68ZM18.443 4.07892L30.763 32.3989L32.597 31.6011L20.277 3.28108L18.443 4.07892ZM31.68 31H24.64V33H31.68V31ZM25.5663 31.6233L23.1263 25.6233L21.2737 26.3767L23.7137 32.3767L25.5663 31.6233ZM22.2 25H11.2V27H22.2V25ZM10.2694 25.634L7.9094 31.634L9.7706 32.366L12.1306 26.366L10.2694 25.634ZM8.84 31H1.96V33H8.84V31ZM2.87793 32.3967L15.1179 4.07673L13.2821 3.28327L1.04207 31.6033L2.87793 32.3967ZM15.6686 11.5559L12.2286 20.3559L14.0914 21.0841L17.5314 12.2841L15.6686 11.5559ZM13.16 21.72H20.08V19.72H13.16V21.72ZM21.0099 20.3523L17.5299 11.5523L15.6701 12.2877L19.1501 21.0877L21.0099 20.3523ZM33.8484 1.76V0.759998H32.8484V1.76H33.8484ZM39.8484 1.76H40.8484V0.759998H39.8484V1.76ZM39.8484 32V33H40.8484V32H39.8484ZM33.8484 32H32.8484V33H33.8484V32ZM33.8484 2.76H39.8484V0.759998H33.8484V2.76ZM38.8484 1.76V32H40.8484V1.76H38.8484ZM39.8484 31H33.8484V33H39.8484V31ZM34.8484 32V1.76H32.8484V32H34.8484ZM44.2391 12.56V11.56H43.2391V12.56H44.2391ZM50.2391 12.56H51.2391V11.56H50.2391V12.56ZM50.2391 32V33H51.2391V32H50.2391ZM44.2391 32H43.2391V33H44.2391V32ZM44.7591 4L44.052 3.29289L44.052 3.29289L44.7591 4ZM49.6791 4L48.9582 4.69311L48.9718 4.70724L48.986 4.72083L49.6791 4ZM49.6791 8.92L50.3862 9.62711L50.3862 9.62711L49.6791 8.92ZM44.7591 8.92L44.0382 9.61311L44.0518 9.62724L44.066 9.64083L44.7591 8.92ZM44.2391 13.56H50.2391V11.56H44.2391V13.56ZM49.2391 12.56V32H51.2391V12.56H49.2391ZM50.2391 31H44.2391V33H50.2391V31ZM45.2391 32V12.56H43.2391V32H45.2391ZM44.7591 6.44C44.7591 5.73979 44.9908 5.18243 45.4662 4.7071L44.052 3.29289C43.194 4.1509 42.7591 5.22021 42.7591 6.44H44.7591ZM45.4662 4.70711C45.9765 4.19682 46.5506 3.96 47.2391 3.96V1.96C46.0076 1.96 44.9283 2.41652 44.052 3.29289L45.4662 4.70711ZM47.2391 3.96C47.9265 3.96 48.4797 4.19543 48.9582 4.69311L50.3999 3.30689C49.5451 2.41791 48.4717 1.96 47.2391 1.96V3.96ZM48.986 4.72083C49.4836 5.19937 49.7191 5.75261 49.7191 6.44H51.7191C51.7191 5.20739 51.2612 4.13396 50.3722 3.27917L48.986 4.72083ZM49.7191 6.44C49.7191 7.12849 49.4822 7.7026 48.972 8.21289L50.3862 9.62711C51.2625 8.75073 51.7191 7.6715 51.7191 6.44H49.7191ZM48.972 8.21289C48.4966 8.68822 47.9393 8.92 47.2391 8.92V10.92C48.4589 10.92 49.5282 10.4851 50.3862 9.62711L48.972 8.21289ZM47.2391 8.92C46.538 8.92 45.9596 8.6871 45.4522 8.19917L44.066 9.64083C44.9452 10.4862 46.0201 10.92 47.2391 10.92V8.92ZM45.4799 8.22689C44.992 7.71944 44.7591 7.14101 44.7591 6.44H42.7591C42.7591 7.65898 43.1928 8.73389 44.0382 9.61311L45.4799 8.22689ZM52.5097 12.56V11.56H51.014L51.5856 12.9422L52.5097 12.56ZM58.9897 12.56L59.9267 12.2107L59.6842 11.56H58.9897V12.56ZM63.9097 25.76L62.9727 26.1093L63.2152 26.76H63.9097V25.76ZM63.9897 25.76V26.76H64.7022L64.9349 26.0865L63.9897 25.76ZM68.5497 12.56V11.56H67.8372L67.6045 12.2335L68.5497 12.56ZM74.5897 12.56L75.5197 12.9274L76.06 11.56H74.5897V12.56ZM66.9097 32V33H67.5898L67.8397 32.3674L66.9097 32ZM60.5497 32L59.6256 32.3822L59.8811 33H60.5497V32ZM52.5097 13.56H58.9897V11.56H52.5097V13.56ZM58.0527 12.9093L62.9727 26.1093L64.8467 25.4107L59.9267 12.2107L58.0527 12.9093ZM63.9097 26.76H63.9897V24.76H63.9097V26.76ZM64.9349 26.0865L69.4949 12.8865L67.6045 12.2335L63.0445 25.4335L64.9349 26.0865ZM68.5497 13.56H74.5897V11.56H68.5497V13.56ZM73.6596 12.1926L65.9796 31.6326L67.8397 32.3674L75.5197 12.9274L73.6596 12.1926ZM66.9097 31H60.5497V33H66.9097V31ZM61.4738 31.6178L53.4338 12.1778L51.5856 12.9422L59.6256 32.3822L61.4738 31.6178ZM76.8563 12.56V11.56H75.8563V12.56H76.8563ZM82.8563 12.56H83.8563V11.56H82.8563V12.56ZM82.8563 32V33H83.8563V32H82.8563ZM76.8563 32H75.8563V33H76.8563V32ZM77.3763 4L76.6691 3.29289L76.6691 3.29289L77.3763 4ZM82.2963 4L81.5754 4.69311L81.589 4.70724L81.6031 4.72083L82.2963 4ZM82.2963 8.92L83.0034 9.62711L83.0034 9.62711L82.2963 8.92ZM77.3763 8.92L76.6554 9.61311L76.669 9.62724L76.6831 9.64083L77.3763 8.92ZM76.8563 13.56H82.8563V11.56H76.8563V13.56ZM81.8563 12.56V32H83.8563V12.56H81.8563ZM82.8563 31H76.8563V33H82.8563V31ZM77.8563 32V12.56H75.8563V32H77.8563ZM77.3763 6.44C77.3763 5.73979 77.608 5.18243 78.0834 4.7071L76.6691 3.29289C75.8111 4.1509 75.3763 5.22021 75.3763 6.44H77.3763ZM78.0834 4.70711C78.5936 4.19682 79.1678 3.96 79.8563 3.96V1.96C78.6247 1.96 77.5455 2.41652 76.6691 3.29289L78.0834 4.70711ZM79.8563 3.96C80.5436 3.96 81.0969 4.19543 81.5754 4.69311L83.0171 3.30689C82.1623 2.41791 81.0889 1.96 79.8563 1.96V3.96ZM81.6031 4.72083C82.1008 5.19937 82.3363 5.75261 82.3363 6.44H84.3363C84.3363 5.20739 83.8783 4.13396 82.9894 3.27917L81.6031 4.72083ZM82.3363 6.44C82.3363 7.12849 82.0994 7.7026 81.5891 8.21289L83.0034 9.62711C83.8797 8.75073 84.3363 7.6715 84.3363 6.44H82.3363ZM81.5891 8.21289C81.1138 8.68822 80.5565 8.92 79.8563 8.92V10.92C81.076 10.92 82.1454 10.4851 83.0034 9.62711L81.5891 8.21289ZM79.8563 8.92C79.1552 8.92 78.5768 8.6871 78.0694 8.19917L76.6831 9.64083C77.5624 10.4862 78.6373 10.92 79.8563 10.92V8.92ZM78.0971 8.22689C77.6091 7.71944 77.3763 7.14101 77.3763 6.44H75.3763C75.3763 7.65898 75.81 8.73389 76.6554 9.61311L78.0971 8.22689ZM87.2869 18.08L86.3739 17.6721L86.3739 17.6721L87.2869 18.08ZM89.5669 14.88L90.2426 15.6172L90.2435 15.6163L89.5669 14.88ZM93.0069 12.8L92.6681 11.8591L92.6621 11.8613L93.0069 12.8ZM101.447 12.8L101.102 13.7387L101.108 13.7409L101.447 12.8ZM104.887 14.88L104.2 15.607L104.211 15.6168L104.221 15.6263L104.887 14.88ZM107.207 18.08L106.294 18.4879L106.294 18.4879L107.207 18.08ZM107.207 26.48L106.294 26.0721L106.294 26.0721L107.207 26.48ZM104.887 29.72L105.563 30.4572L105.564 30.4563L104.887 29.72ZM101.447 31.76L101.108 30.8191L101.102 30.8213L101.447 31.76ZM93.0069 31.76L92.6621 32.6987L92.6682 32.7009L93.0069 31.76ZM89.5669 29.72L88.8803 30.447L88.8906 30.4568L88.9013 30.4663L89.5669 29.72ZM87.2869 26.48L88.1999 26.0721L88.1999 26.0721L87.2869 26.48ZM93.6869 25.84L92.9479 26.5138L92.9533 26.5196L92.9587 26.5254L93.6869 25.84ZM100.767 25.84L100.039 25.1546L100.033 25.1604L100.028 25.1662L100.767 25.84ZM100.767 18.72L100.028 19.3938L100.033 19.3996L100.039 19.4054L100.767 18.72ZM93.6869 18.72L92.9587 18.0346L92.9533 18.0404L92.9479 18.0462L93.6869 18.72ZM87.4469 22.28C87.4469 20.8561 87.7041 19.5976 88.1999 18.4879L86.3739 17.6721C85.7497 19.0691 85.4469 20.6106 85.4469 22.28H87.4469ZM88.1999 18.4879C88.7072 17.3525 89.3888 16.3998 90.2426 15.6172L88.8912 14.1428C87.825 15.1202 86.9866 16.3008 86.3739 17.6721L88.1999 18.4879ZM90.2435 15.6163C91.1301 14.8016 92.1629 14.1754 93.3517 13.7387L92.6621 11.8613C91.2375 12.3846 89.977 13.1451 88.8903 14.1437L90.2435 15.6163ZM93.3456 13.7409C94.5645 13.3021 95.8627 13.08 97.2469 13.08V11.08C95.6443 11.08 94.1159 11.3379 92.6682 11.8591L93.3456 13.7409ZM97.2469 13.08C98.6312 13.08 99.9136 13.3021 101.102 13.7387L101.792 11.8613C100.367 11.3379 98.8493 11.08 97.2469 11.08V13.08ZM101.108 13.7409C102.322 14.1777 103.347 14.8016 104.2 15.607L105.573 14.153C104.506 13.1451 103.239 12.3823 101.786 11.8591L101.108 13.7409ZM104.221 15.6263C105.098 16.4086 105.789 17.3585 106.294 18.4879L108.12 17.6721C107.505 16.2948 106.649 15.1114 105.552 14.1337L104.221 15.6263ZM106.294 18.4879C106.79 19.5976 107.047 20.8561 107.047 22.28H109.047C109.047 20.6106 108.744 19.0691 108.12 17.6721L106.294 18.4879ZM107.047 22.28C107.047 23.7039 106.79 24.9624 106.294 26.0721L108.12 26.8879C108.744 25.4909 109.047 23.9494 109.047 22.28H107.047ZM106.294 26.0721C105.788 27.2041 105.094 28.1715 104.21 28.9837L105.564 30.4563C106.653 29.4552 107.506 28.2626 108.12 26.8879L106.294 26.0721ZM104.211 28.9828C103.357 29.7656 102.328 30.38 101.108 30.8191L101.786 32.7009C103.233 32.18 104.497 31.4344 105.563 30.4572L104.211 28.9828ZM101.102 30.8213C99.9136 31.2579 98.6312 31.48 97.2469 31.48V33.48C98.8493 33.48 100.367 33.2221 101.792 32.6987L101.102 30.8213ZM97.2469 31.48C95.8627 31.48 94.5645 31.2579 93.3456 30.8191L92.6682 32.7009C94.1159 33.2221 95.6443 33.48 97.2469 33.48V31.48ZM93.3517 30.8213C92.1568 30.3824 91.1204 29.7656 90.2325 28.9737L88.9013 30.4663C89.9867 31.4344 91.2436 32.1776 92.6621 32.6987L93.3517 30.8213ZM90.2535 28.993C89.393 28.1803 88.7083 27.21 88.1999 26.0721L86.3739 26.8879C86.9854 28.2566 87.8207 29.4464 88.8803 30.447L90.2535 28.993ZM88.1999 26.0721C87.7041 24.9624 87.4469 23.7039 87.4469 22.28H85.4469C85.4469 23.9494 85.7497 25.4909 86.3739 26.8879L88.1999 26.0721ZM91.4469 22.28C91.4469 23.9445 91.9216 25.3881 92.9479 26.5138L94.4258 25.1662C93.7988 24.4786 93.4469 23.5489 93.4469 22.28H91.4469ZM92.9587 26.5254C94.0416 27.676 95.5166 28.2 97.2469 28.2V26.2C95.9372 26.2 95.0388 25.8174 94.4151 25.1546L92.9587 26.5254ZM97.2469 28.2C98.9759 28.2 100.446 27.6762 101.506 26.5138L100.028 25.1662C99.4345 25.8171 98.5579 26.2 97.2469 26.2V28.2ZM101.495 26.5254C102.554 25.4008 103.047 23.953 103.047 22.28H101.047C101.047 23.5403 100.687 24.4659 100.039 25.1546L101.495 26.5254ZM103.047 22.28C103.047 20.607 102.554 19.1592 101.495 18.0346L100.039 19.4054C100.687 20.0941 101.047 21.0197 101.047 22.28H103.047ZM101.506 18.0462C100.446 16.8838 98.9759 16.36 97.2469 16.36V18.36C98.5579 18.36 99.4345 18.7429 100.028 19.3938L101.506 18.0462ZM97.2469 16.36C95.5166 16.36 94.0416 16.884 92.9587 18.0346L94.4151 19.4054C95.0388 18.7426 95.9372 18.36 97.2469 18.36V16.36ZM92.9479 18.0462C91.9216 19.1719 91.4469 20.6155 91.4469 22.28H93.4469C93.4469 21.0111 93.7988 20.0814 94.4258 19.3938L92.9479 18.0462Z" fill="black"/>
<path d="M14.2 3.68V2.68H13.5428L13.2821 3.28327L14.2 3.68ZM19.36 3.68L20.277 3.28108L20.0155 2.68H19.36V3.68ZM31.68 32V33H33.2056L32.597 31.6011L31.68 32ZM24.64 32L23.7137 32.3767L23.9671 33H24.64V32ZM22.2 26L23.1263 25.6233L22.8729 25H22.2V26ZM11.2 26V25H10.5188L10.2694 25.634L11.2 26ZM8.84 32V33H9.52124L9.7706 32.366L8.84 32ZM1.96 32L1.04207 31.6033L0.438393 33H1.96V32ZM16.6 11.92L17.5299 11.5523L16.5946 9.18711L15.6686 11.5559L16.6 11.92ZM13.16 20.72L12.2286 20.3559L11.6954 21.72H13.16V20.72ZM20.08 20.72V21.72H21.5508L21.0099 20.3523L20.08 20.72ZM14.2 4.68H19.36V2.68H14.2V4.68ZM18.443 4.07892L30.763 32.3989L32.597 31.6011L20.277 3.28108L18.443 4.07892ZM31.68 31H24.64V33H31.68V31ZM25.5663 31.6233L23.1263 25.6233L21.2737 26.3767L23.7137 32.3767L25.5663 31.6233ZM22.2 25H11.2V27H22.2V25ZM10.2694 25.634L7.9094 31.634L9.7706 32.366L12.1306 26.366L10.2694 25.634ZM8.84 31H1.96V33H8.84V31ZM2.87793 32.3967L15.1179 4.07673L13.2821 3.28327L1.04207 31.6033L2.87793 32.3967ZM15.6686 11.5559L12.2286 20.3559L14.0914 21.0841L17.5314 12.2841L15.6686 11.5559ZM13.16 21.72H20.08V19.72H13.16V21.72ZM21.0099 20.3523L17.5299 11.5523L15.6701 12.2877L19.1501 21.0877L21.0099 20.3523ZM33.8484 1.76V0.759998H32.8484V1.76H33.8484ZM39.8484 1.76H40.8484V0.759998H39.8484V1.76ZM39.8484 32V33H40.8484V32H39.8484ZM33.8484 32H32.8484V33H33.8484V32ZM33.8484 2.76H39.8484V0.759998H33.8484V2.76ZM38.8484 1.76V32H40.8484V1.76H38.8484ZM39.8484 31H33.8484V33H39.8484V31ZM34.8484 32V1.76H32.8484V32H34.8484ZM44.2391 12.56V11.56H43.2391V12.56H44.2391ZM50.2391 12.56H51.2391V11.56H50.2391V12.56ZM50.2391 32V33H51.2391V32H50.2391ZM44.2391 32H43.2391V33H44.2391V32ZM44.7591 4L44.052 3.29289L44.052 3.29289L44.7591 4ZM49.6791 4L48.9582 4.69311L48.9718 4.70724L48.986 4.72083L49.6791 4ZM49.6791 8.92L50.3862 9.62711L50.3862 9.62711L49.6791 8.92ZM44.7591 8.92L44.0382 9.61311L44.0518 9.62724L44.066 9.64083L44.7591 8.92ZM44.2391 13.56H50.2391V11.56H44.2391V13.56ZM49.2391 12.56V32H51.2391V12.56H49.2391ZM50.2391 31H44.2391V33H50.2391V31ZM45.2391 32V12.56H43.2391V32H45.2391ZM44.7591 6.44C44.7591 5.73979 44.9908 5.18243 45.4662 4.7071L44.052 3.29289C43.194 4.1509 42.7591 5.22021 42.7591 6.44H44.7591ZM45.4662 4.70711C45.9765 4.19682 46.5506 3.96 47.2391 3.96V1.96C46.0076 1.96 44.9283 2.41652 44.052 3.29289L45.4662 4.70711ZM47.2391 3.96C47.9265 3.96 48.4797 4.19543 48.9582 4.69311L50.3999 3.30689C49.5451 2.41791 48.4717 1.96 47.2391 1.96V3.96ZM48.986 4.72083C49.4836 5.19937 49.7191 5.75261 49.7191 6.44H51.7191C51.7191 5.20739 51.2612 4.13396 50.3722 3.27917L48.986 4.72083ZM49.7191 6.44C49.7191 7.12849 49.4822 7.7026 48.972 8.21289L50.3862 9.62711C51.2625 8.75073 51.7191 7.6715 51.7191 6.44H49.7191ZM48.972 8.21289C48.4966 8.68822 47.9393 8.92 47.2391 8.92V10.92C48.4589 10.92 49.5282 10.4851 50.3862 9.62711L48.972 8.21289ZM47.2391 8.92C46.538 8.92 45.9596 8.6871 45.4522 8.19917L44.066 9.64083C44.9452 10.4862 46.0201 10.92 47.2391 10.92V8.92ZM45.4799 8.22689C44.992 7.71944 44.7591 7.14101 44.7591 6.44H42.7591C42.7591 7.65898 43.1928 8.73389 44.0382 9.61311L45.4799 8.22689ZM52.5097 12.56V11.56H51.014L51.5856 12.9422L52.5097 12.56ZM58.9897 12.56L59.9267 12.2107L59.6842 11.56H58.9897V12.56ZM63.9097 25.76L62.9727 26.1093L63.2152 26.76H63.9097V25.76ZM63.9897 25.76V26.76H64.7022L64.9349 26.0865L63.9897 25.76ZM68.5497 12.56V11.56H67.8372L67.6045 12.2335L68.5497 12.56ZM74.5897 12.56L75.5197 12.9274L76.06 11.56H74.5897V12.56ZM66.9097 32V33H67.5898L67.8397 32.3674L66.9097 32ZM60.5497 32L59.6256 32.3822L59.8811 33H60.5497V32ZM52.5097 13.56H58.9897V11.56H52.5097V13.56ZM58.0527 12.9093L62.9727 26.1093L64.8467 25.4107L59.9267 12.2107L58.0527 12.9093ZM63.9097 26.76H63.9897V24.76H63.9097V26.76ZM64.9349 26.0865L69.4949 12.8865L67.6045 12.2335L63.0445 25.4335L64.9349 26.0865ZM68.5497 13.56H74.5897V11.56H68.5497V13.56ZM73.6596 12.1926L65.9796 31.6326L67.8397 32.3674L75.5197 12.9274L73.6596 12.1926ZM66.9097 31H60.5497V33H66.9097V31ZM61.4738 31.6178L53.4338 12.1778L51.5856 12.9422L59.6256 32.3822L61.4738 31.6178ZM76.8563 12.56V11.56H75.8563V12.56H76.8563ZM82.8563 12.56H83.8563V11.56H82.8563V12.56ZM82.8563 32V33H83.8563V32H82.8563ZM76.8563 32H75.8563V33H76.8563V32ZM77.3763 4L76.6691 3.29289L76.6691 3.29289L77.3763 4ZM82.2963 4L81.5754 4.69311L81.589 4.70724L81.6031 4.72083L82.2963 4ZM82.2963 8.92L83.0034 9.62711L83.0034 9.62711L82.2963 8.92ZM77.3763 8.92L76.6554 9.61311L76.669 9.62724L76.6831 9.64083L77.3763 8.92ZM76.8563 13.56H82.8563V11.56H76.8563V13.56ZM81.8563 12.56V32H83.8563V12.56H81.8563ZM82.8563 31H76.8563V33H82.8563V31ZM77.8563 32V12.56H75.8563V32H77.8563ZM77.3763 6.44C77.3763 5.73979 77.608 5.18243 78.0834 4.7071L76.6691 3.29289C75.8111 4.1509 75.3763 5.22021 75.3763 6.44H77.3763ZM78.0834 4.70711C78.5936 4.19682 79.1678 3.96 79.8563 3.96V1.96C78.6247 1.96 77.5455 2.41652 76.6691 3.29289L78.0834 4.70711ZM79.8563 3.96C80.5436 3.96 81.0969 4.19543 81.5754 4.69311L83.0171 3.30689C82.1623 2.41791 81.0889 1.96 79.8563 1.96V3.96ZM81.6031 4.72083C82.1008 5.19937 82.3363 5.75261 82.3363 6.44H84.3363C84.3363 5.20739 83.8783 4.13396 82.9894 3.27917L81.6031 4.72083ZM82.3363 6.44C82.3363 7.12849 82.0994 7.7026 81.5891 8.21289L83.0034 9.62711C83.8797 8.75073 84.3363 7.6715 84.3363 6.44H82.3363ZM81.5891 8.21289C81.1138 8.68822 80.5565 8.92 79.8563 8.92V10.92C81.076 10.92 82.1454 10.4851 83.0034 9.62711L81.5891 8.21289ZM79.8563 8.92C79.1552 8.92 78.5768 8.6871 78.0694 8.19917L76.6831 9.64083C77.5624 10.4862 78.6373 10.92 79.8563 10.92V8.92ZM78.0971 8.22689C77.6091 7.71944 77.3763 7.14101 77.3763 6.44H75.3763C75.3763 7.65898 75.81 8.73389 76.6554 9.61311L78.0971 8.22689ZM87.2869 18.08L86.3739 17.6721L86.3739 17.6721L87.2869 18.08ZM89.5669 14.88L90.2426 15.6172L90.2435 15.6163L89.5669 14.88ZM93.0069 12.8L92.6681 11.8591L92.6621 11.8613L93.0069 12.8ZM101.447 12.8L101.102 13.7387L101.108 13.7409L101.447 12.8ZM104.887 14.88L104.2 15.607L104.211 15.6168L104.221 15.6263L104.887 14.88ZM107.207 18.08L106.294 18.4879L106.294 18.4879L107.207 18.08ZM107.207 26.48L106.294 26.0721L106.294 26.0721L107.207 26.48ZM104.887 29.72L105.563 30.4572L105.564 30.4563L104.887 29.72ZM101.447 31.76L101.108 30.8191L101.102 30.8213L101.447 31.76ZM93.0069 31.76L92.6621 32.6987L92.6682 32.7009L93.0069 31.76ZM89.5669 29.72L88.8803 30.447L88.8906 30.4568L88.9013 30.4663L89.5669 29.72ZM87.2869 26.48L88.1999 26.0721L88.1999 26.0721L87.2869 26.48ZM93.6869 25.84L92.9479 26.5138L92.9533 26.5196L92.9587 26.5254L93.6869 25.84ZM100.767 25.84L100.039 25.1546L100.033 25.1604L100.028 25.1662L100.767 25.84ZM100.767 18.72L100.028 19.3938L100.033 19.3996L100.039 19.4054L100.767 18.72ZM93.6869 18.72L92.9587 18.0346L92.9533 18.0404L92.9479 18.0462L93.6869 18.72ZM87.4469 22.28C87.4469 20.8561 87.7041 19.5976 88.1999 18.4879L86.3739 17.6721C85.7497 19.0691 85.4469 20.6106 85.4469 22.28H87.4469ZM88.1999 18.4879C88.7072 17.3525 89.3888 16.3998 90.2426 15.6172L88.8912 14.1428C87.825 15.1202 86.9866 16.3008 86.3739 17.6721L88.1999 18.4879ZM90.2435 15.6163C91.1301 14.8016 92.1629 14.1754 93.3517 13.7387L92.6621 11.8613C91.2375 12.3846 89.977 13.1451 88.8903 14.1437L90.2435 15.6163ZM93.3456 13.7409C94.5645 13.3021 95.8627 13.08 97.2469 13.08V11.08C95.6443 11.08 94.1159 11.3379 92.6682 11.8591L93.3456 13.7409ZM97.2469 13.08C98.6312 13.08 99.9136 13.3021 101.102 13.7387L101.792 11.8613C100.367 11.3379 98.8493 11.08 97.2469 11.08V13.08ZM101.108 13.7409C102.322 14.1777 103.347 14.8016 104.2 15.607L105.573 14.153C104.506 13.1451 103.239 12.3823 101.786 11.8591L101.108 13.7409ZM104.221 15.6263C105.098 16.4086 105.789 17.3585 106.294 18.4879L108.12 17.6721C107.505 16.2948 106.649 15.1114 105.552 14.1337L104.221 15.6263ZM106.294 18.4879C106.79 19.5976 107.047 20.8561 107.047 22.28H109.047C109.047 20.6106 108.744 19.0691 108.12 17.6721L106.294 18.4879ZM107.047 22.28C107.047 23.7039 106.79 24.9624 106.294 26.0721L108.12 26.8879C108.744 25.4909 109.047 23.9494 109.047 22.28H107.047ZM106.294 26.0721C105.788 27.2041 105.094 28.1715 104.21 28.9837L105.564 30.4563C106.653 29.4552 107.506 28.2626 108.12 26.8879L106.294 26.0721ZM104.211 28.9828C103.357 29.7656 102.328 30.38 101.108 30.8191L101.786 32.7009C103.233 32.18 104.497 31.4344 105.563 30.4572L104.211 28.9828ZM101.102 30.8213C99.9136 31.2579 98.6312 31.48 97.2469 31.48V33.48C98.8493 33.48 100.367 33.2221 101.792 32.6987L101.102 30.8213ZM97.2469 31.48C95.8627 31.48 94.5645 31.2579 93.3456 30.8191L92.6682 32.7009C94.1159 33.2221 95.6443 33.48 97.2469 33.48V31.48ZM93.3517 30.8213C92.1568 30.3824 91.1204 29.7656 90.2325 28.9737L88.9013 30.4663C89.9867 31.4344 91.2436 32.1776 92.6621 32.6987L93.3517 30.8213ZM90.2535 28.993C89.393 28.1803 88.7083 27.21 88.1999 26.0721L86.3739 26.8879C86.9854 28.2566 87.8207 29.4464 88.8803 30.447L90.2535 28.993ZM88.1999 26.0721C87.7041 24.9624 87.4469 23.7039 87.4469 22.28H85.4469C85.4469 23.9494 85.7497 25.4909 86.3739 26.8879L88.1999 26.0721ZM91.4469 22.28C91.4469 23.9445 91.9216 25.3881 92.9479 26.5138L94.4258 25.1662C93.7988 24.4786 93.4469 23.5489 93.4469 22.28H91.4469ZM92.9587 26.5254C94.0416 27.676 95.5166 28.2 97.2469 28.2V26.2C95.9372 26.2 95.0388 25.8174 94.4151 25.1546L92.9587 26.5254ZM97.2469 28.2C98.9759 28.2 100.446 27.6762 101.506 26.5138L100.028 25.1662C99.4345 25.8171 98.5579 26.2 97.2469 26.2V28.2ZM101.495 26.5254C102.554 25.4008 103.047 23.953 103.047 22.28H101.047C101.047 23.5403 100.687 24.4659 100.039 25.1546L101.495 26.5254ZM103.047 22.28C103.047 20.607 102.554 19.1592 101.495 18.0346L100.039 19.4054C100.687 20.0941 101.047 21.0197 101.047 22.28H103.047ZM101.506 18.0462C100.446 16.8838 98.9759 16.36 97.2469 16.36V18.36C98.5579 18.36 99.4345 18.7429 100.028 19.3938L101.506 18.0462ZM97.2469 16.36C95.5166 16.36 94.0416 16.884 92.9587 18.0346L94.4151 19.4054C95.0388 18.7426 95.9372 18.36 97.2469 18.36V16.36ZM92.9479 18.0462C91.9216 19.1719 91.4469 20.6155 91.4469 22.28H93.4469C93.4469 21.0111 93.7988 20.0814 94.4258 19.3938L92.9479 18.0462Z" fill="url(#paint1_linear)"/>
<defs>
<linearGradient id="paint0_linear" x1="56" y1="-8" x2="56" y2="47" gradientUnits="userSpaceOnUse">
<stop stop-color="white"/>
<stop offset="1" stop-color="white" stop-opacity="0"/>
</linearGradient>
<linearGradient id="paint1_linear" x1="56" y1="-8" x2="56" y2="47" gradientUnits="userSpaceOnUse">
<stop stop-color="white"/>
<stop offset="1" stop-color="white" stop-opacity="0"/>
</linearGradient>
</defs>
</svg>
